G04 EAGLE Gerber RS-274X export*
G75*
%MOMM*%
%FSLAX34Y34*%
%LPD*%
%INBottom Copper*%
%IPPOS*%
%AMOC8*
5,1,8,0,0,1.08239X$1,22.5*%
G01*
%ADD10C,1.800000*%
%ADD11C,1.550000*%
%ADD12C,3.316000*%
%ADD13C,1.428000*%
%ADD14C,1.600000*%
%ADD15R,0.635000X1.524000*%
%ADD16R,1.800000X1.600000*%
%ADD17C,1.879600*%
%ADD18C,5.500000*%
%ADD19C,0.756400*%
%ADD20C,0.406400*%
%ADD21C,0.254000*%


D10*
X526800Y334800D02*
X526800Y352800D01*
X468800Y352800D02*
X468800Y334800D01*
X489800Y391800D02*
X507800Y391800D01*
D11*
X32030Y243400D03*
X32030Y192600D03*
X32030Y167200D03*
X32030Y141800D03*
X82830Y243400D03*
X82830Y192600D03*
X82830Y167200D03*
X82830Y141800D03*
D12*
X40700Y434900D03*
X40700Y303500D03*
D13*
X67800Y359200D03*
X67800Y379200D03*
X67800Y334200D03*
X67800Y404200D03*
X458220Y169940D03*
X458220Y144940D03*
X478220Y144940D03*
X478220Y169940D03*
D14*
X497320Y98440D02*
X513320Y98440D01*
X513320Y216440D02*
X497320Y216440D01*
D15*
X302540Y430440D03*
X327940Y376540D03*
X289840Y430440D03*
X315240Y430440D03*
X327940Y430440D03*
X315240Y376540D03*
X340640Y376540D03*
X353340Y376540D03*
X353340Y430440D03*
X378740Y376540D03*
X340640Y430440D03*
X366040Y430440D03*
X366040Y376540D03*
X378740Y430440D03*
X302540Y376540D03*
X289840Y376540D03*
D16*
X254280Y416220D03*
X254280Y388220D03*
D17*
X300000Y520330D03*
X325400Y520330D03*
X350800Y520330D03*
X376200Y520330D03*
X401600Y520330D03*
X427000Y520330D03*
X499060Y263280D03*
X473660Y263280D03*
D18*
X43780Y42800D03*
X506920Y43070D03*
X507250Y507600D03*
X43180Y506680D03*
D19*
X444780Y242200D03*
X444780Y281570D03*
D20*
X444780Y242200D01*
D19*
X127280Y176160D03*
D20*
X122200Y181240D01*
D19*
X95530Y421270D03*
D20*
X122200Y318400D02*
X122200Y181240D01*
X122200Y318400D02*
X122200Y369200D01*
X95530Y395870D01*
X95530Y421270D01*
D19*
X122200Y318400D03*
X211100Y534300D03*
D20*
X289840Y442860D02*
X289840Y430440D01*
X289840Y442860D02*
X287300Y445400D01*
X261900Y445400D02*
X254280Y437780D01*
X254280Y416220D01*
X261900Y445400D02*
X287300Y445400D01*
X254280Y416220D02*
X245420Y416220D01*
X228880Y399680D01*
X286030Y281570D02*
X444780Y281570D01*
X228880Y338720D02*
X228880Y399680D01*
X228880Y338720D02*
X286030Y281570D01*
X211100Y534300D02*
X395700Y534300D01*
X401600Y528400D02*
X401600Y520330D01*
X401600Y528400D02*
X395700Y534300D01*
D19*
X345720Y136380D03*
D21*
X285170Y75830D01*
D19*
X226340Y75830D03*
D21*
X285170Y75830D01*
X226340Y75830D02*
X110770Y75830D01*
D19*
X110770Y75830D03*
X258090Y85990D03*
D20*
X164110Y85990D01*
X82900Y167200D02*
X82830Y167200D01*
X82900Y167200D02*
X164110Y85990D01*
X82830Y192600D02*
X102700Y212470D01*
X102700Y324300D02*
X67800Y359200D01*
X102700Y324300D02*
X102700Y212470D01*
D19*
X250470Y93610D03*
D20*
X113310Y333690D02*
X67800Y379200D01*
X169190Y93610D02*
X250470Y93610D01*
X169190Y93610D02*
X113310Y149490D01*
X113310Y333690D01*
D19*
X89180Y310780D03*
D20*
X89180Y285380D01*
X58700Y209180D02*
X42120Y192600D01*
X32030Y192600D01*
X58700Y254900D02*
X89180Y285380D01*
X58700Y254900D02*
X58700Y209180D01*
D19*
X259360Y52970D03*
D20*
X340640Y430440D02*
X340640Y442860D01*
X300000Y483500D01*
X173000Y483500D01*
X153950Y464450D01*
X153950Y388250D01*
X388900Y153300D01*
X388900Y119010D01*
X322860Y52970D02*
X259360Y52970D01*
X322860Y52970D02*
X388900Y119010D01*
X316510Y64400D02*
X260630Y64400D01*
X353340Y430440D02*
X353340Y445400D01*
X377470Y125360D02*
X316510Y64400D01*
X377470Y125360D02*
X377470Y150760D01*
X145060Y383170D01*
X145060Y469530D01*
X169190Y493660D01*
X305080Y493660D01*
X353340Y445400D01*
D19*
X258316Y67000D03*
D20*
X258316Y66714D02*
X260630Y64400D01*
X258316Y66714D02*
X258316Y67000D01*
D19*
X186970Y428890D03*
X194590Y384440D03*
D20*
X194590Y421270D01*
X186970Y428890D01*
D19*
X91720Y75830D03*
D21*
X128550Y39000D01*
X331750Y39000D01*
X341910Y49160D01*
X341910Y52970D01*
D19*
X341910Y52970D03*
D20*
X254280Y364120D02*
X254280Y388220D01*
X254280Y364120D02*
X261900Y356500D01*
X274600Y356500D01*
X289840Y371740D02*
X289840Y376540D01*
X289840Y371740D02*
X274600Y356500D01*
X269520Y348880D02*
X273330Y345070D01*
D19*
X269520Y315860D03*
D20*
X269520Y348880D01*
X261900Y356500D01*
D19*
X209830Y384440D03*
D20*
X209830Y345070D01*
X292380Y262520D01*
X297460Y262520D01*
D19*
X297460Y262520D03*
X181890Y441590D03*
D20*
X315240Y449210D02*
X315240Y430440D01*
X175540Y470800D02*
X167920Y463180D01*
X167920Y450480D01*
X176810Y441590D02*
X181890Y441590D01*
X293650Y470800D02*
X315240Y449210D01*
X293650Y470800D02*
X175540Y470800D01*
X167920Y450480D02*
X176810Y441590D01*
D19*
X181890Y455560D03*
D20*
X302540Y446670D02*
X302540Y430440D01*
X293650Y455560D02*
X181890Y455560D01*
X293650Y455560D02*
X302540Y446670D01*
D19*
X449240Y476530D03*
D20*
X424830Y476530D02*
X378740Y430440D01*
X424830Y476530D02*
X449240Y476530D01*
D19*
X391440Y473340D03*
D20*
X366040Y447940D01*
X366040Y430440D01*
X327940Y376540D02*
X327940Y357740D01*
D19*
X170460Y503820D03*
D20*
X327940Y376540D02*
X327940Y353960D01*
X338100Y343800D01*
X388900Y343800D01*
X465100Y480960D02*
X453670Y492390D01*
X406680Y492390D01*
X402870Y488580D01*
X368300Y488580D01*
X325400Y488580D01*
X465100Y420000D02*
X388900Y343800D01*
X465100Y420000D02*
X465100Y480960D01*
X325400Y488580D02*
X310160Y503820D01*
X170460Y503820D01*
X376200Y496480D02*
X376200Y520330D01*
X376200Y496480D02*
X368300Y488580D01*
M02*
