G04 EAGLE Gerber RS-274X export*
G75*
%MOMM*%
%FSLAX34Y34*%
%LPD*%
%INSoldermask Top*%
%IPPOS*%
%AMOC8*
5,1,8,0,0,1.08239X$1,22.5*%
G01*
%ADD10R,1.253200X0.453200*%
%ADD11R,5.537200X2.133600*%
%ADD12R,1.803200X2.003200*%
%ADD13R,2.003200X1.803200*%
%ADD14R,1.603200X3.203200*%
%ADD15C,2.003200*%
%ADD16C,1.753200*%
%ADD17C,3.519200*%
%ADD18C,1.631200*%
%ADD19C,1.803200*%
%ADD20R,2.603200X2.003200*%
%ADD21R,1.203200X1.603200*%
%ADD22R,1.603200X1.403200*%
%ADD23C,0.479381*%
%ADD24C,2.082800*%
%ADD25C,5.703200*%
%ADD26R,1.803200X2.803200*%
%ADD27R,2.803200X1.803200*%
%ADD28C,0.959600*%


D10*
X272190Y31540D03*
X272190Y37940D03*
X272190Y44340D03*
X272190Y50740D03*
X272190Y57140D03*
X272190Y63540D03*
X272190Y69940D03*
X272190Y76340D03*
X272190Y82740D03*
X272190Y89140D03*
X272190Y95540D03*
X272190Y101940D03*
X272190Y108340D03*
X272190Y114740D03*
X323390Y31540D03*
X323390Y37940D03*
X323390Y44340D03*
X323390Y50740D03*
X323390Y57140D03*
X323390Y63540D03*
X323390Y69940D03*
X323390Y76340D03*
X323390Y82740D03*
X323390Y89140D03*
X323390Y95540D03*
X323390Y101940D03*
X323390Y108340D03*
X323390Y114740D03*
D11*
X195860Y221880D03*
X292380Y221880D03*
D12*
X149840Y105800D03*
X121840Y105800D03*
X263140Y174890D03*
X291140Y174890D03*
X223830Y174890D03*
X195830Y174890D03*
X121840Y141360D03*
X149840Y141360D03*
D13*
X324890Y175250D03*
X324890Y147250D03*
X108560Y61860D03*
X108560Y33860D03*
X187300Y61860D03*
X187300Y33860D03*
X147930Y33860D03*
X147930Y61860D03*
D12*
X371420Y108090D03*
X399420Y108090D03*
D13*
X224130Y33860D03*
X224130Y61860D03*
D14*
X406680Y313450D03*
X406680Y361450D03*
D15*
X526800Y352800D02*
X526800Y334800D01*
X468800Y334800D02*
X468800Y352800D01*
X489800Y391800D02*
X507800Y391800D01*
D16*
X32030Y243400D03*
X32030Y192600D03*
X32030Y167200D03*
X32030Y141800D03*
X82830Y243400D03*
X82830Y192600D03*
X82830Y167200D03*
X82830Y141800D03*
D17*
X40700Y434900D03*
X40700Y303500D03*
D18*
X67800Y359200D03*
X67800Y379200D03*
X67800Y334200D03*
X67800Y404200D03*
X458220Y169940D03*
X458220Y144940D03*
X478220Y144940D03*
X478220Y169940D03*
D19*
X497320Y98440D02*
X513320Y98440D01*
X513320Y216440D02*
X497320Y216440D01*
D20*
X120930Y285310D03*
X120930Y244810D03*
D14*
X150140Y394470D03*
X150140Y346470D03*
D21*
X165380Y283270D03*
X155880Y305270D03*
X174880Y305270D03*
D22*
X200940Y283080D03*
X200940Y313080D03*
D13*
X236500Y313350D03*
X236500Y285350D03*
D23*
X214651Y414491D02*
X214651Y426729D01*
X217589Y426729D01*
X217589Y414491D01*
X214651Y414491D01*
X214651Y419045D02*
X217589Y419045D01*
X217589Y423599D02*
X214651Y423599D01*
X222651Y426729D02*
X222651Y414491D01*
X222651Y426729D02*
X225589Y426729D01*
X225589Y414491D01*
X222651Y414491D01*
X222651Y419045D02*
X225589Y419045D01*
X225589Y423599D02*
X222651Y423599D01*
X230651Y426729D02*
X230651Y414491D01*
X230651Y426729D02*
X233589Y426729D01*
X233589Y414491D01*
X230651Y414491D01*
X230651Y419045D02*
X233589Y419045D01*
X233589Y423599D02*
X230651Y423599D01*
X238651Y426729D02*
X238651Y414491D01*
X238651Y426729D02*
X241589Y426729D01*
X241589Y414491D01*
X238651Y414491D01*
X238651Y419045D02*
X241589Y419045D01*
X241589Y423599D02*
X238651Y423599D01*
X246651Y426729D02*
X246651Y414491D01*
X246651Y426729D02*
X249589Y426729D01*
X249589Y414491D01*
X246651Y414491D01*
X246651Y419045D02*
X249589Y419045D01*
X249589Y423599D02*
X246651Y423599D01*
X254651Y426729D02*
X254651Y414491D01*
X254651Y426729D02*
X257589Y426729D01*
X257589Y414491D01*
X254651Y414491D01*
X254651Y419045D02*
X257589Y419045D01*
X257589Y423599D02*
X254651Y423599D01*
X262651Y426729D02*
X262651Y414491D01*
X262651Y426729D02*
X265589Y426729D01*
X265589Y414491D01*
X262651Y414491D01*
X262651Y419045D02*
X265589Y419045D01*
X265589Y423599D02*
X262651Y423599D01*
X270651Y426729D02*
X270651Y414491D01*
X270651Y426729D02*
X273589Y426729D01*
X273589Y414491D01*
X270651Y414491D01*
X270651Y419045D02*
X273589Y419045D01*
X273589Y423599D02*
X270651Y423599D01*
X279301Y432441D02*
X291539Y432441D01*
X279301Y432441D02*
X279301Y435379D01*
X291539Y435379D01*
X291539Y432441D01*
X291539Y440441D02*
X279301Y440441D01*
X279301Y443379D01*
X291539Y443379D01*
X291539Y440441D01*
X291539Y448441D02*
X279301Y448441D01*
X279301Y451379D01*
X291539Y451379D01*
X291539Y448441D01*
X291539Y456441D02*
X279301Y456441D01*
X279301Y459379D01*
X291539Y459379D01*
X291539Y456441D01*
X291539Y464441D02*
X279301Y464441D01*
X279301Y467379D01*
X291539Y467379D01*
X291539Y464441D01*
X291539Y472441D02*
X279301Y472441D01*
X279301Y475379D01*
X291539Y475379D01*
X291539Y472441D01*
X291539Y480441D02*
X279301Y480441D01*
X279301Y483379D01*
X291539Y483379D01*
X291539Y480441D01*
X291539Y488441D02*
X279301Y488441D01*
X279301Y491379D01*
X291539Y491379D01*
X291539Y488441D01*
X273589Y497091D02*
X273589Y509329D01*
X273589Y497091D02*
X270651Y497091D01*
X270651Y509329D01*
X273589Y509329D01*
X273589Y501645D02*
X270651Y501645D01*
X270651Y506199D02*
X273589Y506199D01*
X265589Y509329D02*
X265589Y497091D01*
X262651Y497091D01*
X262651Y509329D01*
X265589Y509329D01*
X265589Y501645D02*
X262651Y501645D01*
X262651Y506199D02*
X265589Y506199D01*
X257589Y509329D02*
X257589Y497091D01*
X254651Y497091D01*
X254651Y509329D01*
X257589Y509329D01*
X257589Y501645D02*
X254651Y501645D01*
X254651Y506199D02*
X257589Y506199D01*
X249589Y509329D02*
X249589Y497091D01*
X246651Y497091D01*
X246651Y509329D01*
X249589Y509329D01*
X249589Y501645D02*
X246651Y501645D01*
X246651Y506199D02*
X249589Y506199D01*
X241589Y509329D02*
X241589Y497091D01*
X238651Y497091D01*
X238651Y509329D01*
X241589Y509329D01*
X241589Y501645D02*
X238651Y501645D01*
X238651Y506199D02*
X241589Y506199D01*
X233589Y509329D02*
X233589Y497091D01*
X230651Y497091D01*
X230651Y509329D01*
X233589Y509329D01*
X233589Y501645D02*
X230651Y501645D01*
X230651Y506199D02*
X233589Y506199D01*
X225589Y509329D02*
X225589Y497091D01*
X222651Y497091D01*
X222651Y509329D01*
X225589Y509329D01*
X225589Y501645D02*
X222651Y501645D01*
X222651Y506199D02*
X225589Y506199D01*
X217589Y509329D02*
X217589Y497091D01*
X214651Y497091D01*
X214651Y509329D01*
X217589Y509329D01*
X217589Y501645D02*
X214651Y501645D01*
X214651Y506199D02*
X217589Y506199D01*
X208939Y491379D02*
X196701Y491379D01*
X208939Y491379D02*
X208939Y488441D01*
X196701Y488441D01*
X196701Y491379D01*
X196701Y483379D02*
X208939Y483379D01*
X208939Y480441D01*
X196701Y480441D01*
X196701Y483379D01*
X196701Y475379D02*
X208939Y475379D01*
X208939Y472441D01*
X196701Y472441D01*
X196701Y475379D01*
X196701Y467379D02*
X208939Y467379D01*
X208939Y464441D01*
X196701Y464441D01*
X196701Y467379D01*
X196701Y459379D02*
X208939Y459379D01*
X208939Y456441D01*
X196701Y456441D01*
X196701Y459379D01*
X196701Y451379D02*
X208939Y451379D01*
X208939Y448441D01*
X196701Y448441D01*
X196701Y451379D01*
X196701Y443379D02*
X208939Y443379D01*
X208939Y440441D01*
X196701Y440441D01*
X196701Y443379D01*
X196701Y435379D02*
X208939Y435379D01*
X208939Y432441D01*
X196701Y432441D01*
X196701Y435379D01*
D11*
X485420Y437780D03*
X388900Y437780D03*
D13*
X327940Y439080D03*
X327940Y411080D03*
D12*
X428300Y497470D03*
X400300Y497470D03*
X237740Y530490D03*
X265740Y530490D03*
X117090Y468260D03*
X145090Y468260D03*
X145090Y432700D03*
X117090Y432700D03*
D11*
X239040Y361580D03*
X335560Y361580D03*
D13*
X338100Y285350D03*
X338100Y313350D03*
X302540Y285350D03*
X302540Y313350D03*
D24*
X300000Y520330D03*
X325400Y520330D03*
X350800Y520330D03*
X376200Y520330D03*
X401600Y520330D03*
X427000Y520330D03*
D14*
X380520Y269680D03*
X380520Y221680D03*
D24*
X499060Y263280D03*
X473660Y263280D03*
D25*
X43780Y42800D03*
X506920Y43070D03*
X507250Y507600D03*
X43180Y506680D03*
D26*
X203000Y144000D03*
X203000Y108000D03*
D27*
X409000Y53000D03*
X373000Y53000D03*
X401000Y155000D03*
X365000Y155000D03*
D28*
X444780Y242200D03*
X444780Y281570D03*
X127280Y176160D03*
X95530Y421270D03*
X122200Y318400D03*
X211100Y534300D03*
X345720Y136380D03*
X226340Y75830D03*
X110770Y75830D03*
X258090Y85990D03*
X250470Y93610D03*
X89180Y310780D03*
X259360Y52970D03*
X258316Y67000D03*
X186970Y428890D03*
X194590Y384440D03*
X91720Y75830D03*
X341910Y52970D03*
X269520Y315860D03*
X209830Y384440D03*
X297460Y262520D03*
X181890Y441590D03*
X181890Y455560D03*
X449240Y476530D03*
X391440Y473340D03*
X170460Y503820D03*
M02*
