G04 EAGLE Gerber RS-274X export*
G75*
%MOMM*%
%FSLAX34Y34*%
%LPD*%
%INSolderpaste Top*%
%IPPOS*%
%AMOC8*
5,1,8,0,0,1.08239X$1,22.5*%
G01*
%ADD10R,1.050000X0.250000*%
%ADD11R,5.334000X1.930400*%
%ADD12R,1.600000X1.800000*%
%ADD13R,1.800000X1.600000*%
%ADD14R,1.400000X3.000000*%
%ADD15R,2.400000X1.800000*%
%ADD16R,1.000000X1.400000*%
%ADD17R,1.400000X1.200000*%
%ADD18C,0.279300*%
%ADD19R,1.600000X2.600000*%
%ADD20R,2.600000X1.600000*%


D10*
X272190Y31540D03*
X272190Y37940D03*
X272190Y44340D03*
X272190Y50740D03*
X272190Y57140D03*
X272190Y63540D03*
X272190Y69940D03*
X272190Y76340D03*
X272190Y82740D03*
X272190Y89140D03*
X272190Y95540D03*
X272190Y101940D03*
X272190Y108340D03*
X272190Y114740D03*
X323390Y31540D03*
X323390Y37940D03*
X323390Y44340D03*
X323390Y50740D03*
X323390Y57140D03*
X323390Y63540D03*
X323390Y69940D03*
X323390Y76340D03*
X323390Y82740D03*
X323390Y89140D03*
X323390Y95540D03*
X323390Y101940D03*
X323390Y108340D03*
X323390Y114740D03*
D11*
X195860Y221880D03*
X292380Y221880D03*
D12*
X149840Y105800D03*
X121840Y105800D03*
X263140Y174890D03*
X291140Y174890D03*
X223830Y174890D03*
X195830Y174890D03*
X121840Y141360D03*
X149840Y141360D03*
D13*
X324890Y175250D03*
X324890Y147250D03*
X108560Y61860D03*
X108560Y33860D03*
X187300Y61860D03*
X187300Y33860D03*
X147930Y33860D03*
X147930Y61860D03*
D12*
X371420Y108090D03*
X399420Y108090D03*
D13*
X224130Y33860D03*
X224130Y61860D03*
D14*
X406680Y313450D03*
X406680Y361450D03*
D15*
X120930Y285310D03*
X120930Y244810D03*
D14*
X150140Y394470D03*
X150140Y346470D03*
D16*
X165380Y283270D03*
X155880Y305270D03*
X174880Y305270D03*
D17*
X200940Y283080D03*
X200940Y313080D03*
D13*
X236500Y313350D03*
X236500Y285350D03*
D18*
X214666Y414506D02*
X214666Y426714D01*
X217574Y426714D01*
X217574Y414506D01*
X214666Y414506D01*
X214666Y417159D02*
X217574Y417159D01*
X217574Y419812D02*
X214666Y419812D01*
X214666Y422465D02*
X217574Y422465D01*
X217574Y425118D02*
X214666Y425118D01*
X222666Y426714D02*
X222666Y414506D01*
X222666Y426714D02*
X225574Y426714D01*
X225574Y414506D01*
X222666Y414506D01*
X222666Y417159D02*
X225574Y417159D01*
X225574Y419812D02*
X222666Y419812D01*
X222666Y422465D02*
X225574Y422465D01*
X225574Y425118D02*
X222666Y425118D01*
X230666Y426714D02*
X230666Y414506D01*
X230666Y426714D02*
X233574Y426714D01*
X233574Y414506D01*
X230666Y414506D01*
X230666Y417159D02*
X233574Y417159D01*
X233574Y419812D02*
X230666Y419812D01*
X230666Y422465D02*
X233574Y422465D01*
X233574Y425118D02*
X230666Y425118D01*
X238666Y426714D02*
X238666Y414506D01*
X238666Y426714D02*
X241574Y426714D01*
X241574Y414506D01*
X238666Y414506D01*
X238666Y417159D02*
X241574Y417159D01*
X241574Y419812D02*
X238666Y419812D01*
X238666Y422465D02*
X241574Y422465D01*
X241574Y425118D02*
X238666Y425118D01*
X246666Y426714D02*
X246666Y414506D01*
X246666Y426714D02*
X249574Y426714D01*
X249574Y414506D01*
X246666Y414506D01*
X246666Y417159D02*
X249574Y417159D01*
X249574Y419812D02*
X246666Y419812D01*
X246666Y422465D02*
X249574Y422465D01*
X249574Y425118D02*
X246666Y425118D01*
X254666Y426714D02*
X254666Y414506D01*
X254666Y426714D02*
X257574Y426714D01*
X257574Y414506D01*
X254666Y414506D01*
X254666Y417159D02*
X257574Y417159D01*
X257574Y419812D02*
X254666Y419812D01*
X254666Y422465D02*
X257574Y422465D01*
X257574Y425118D02*
X254666Y425118D01*
X262666Y426714D02*
X262666Y414506D01*
X262666Y426714D02*
X265574Y426714D01*
X265574Y414506D01*
X262666Y414506D01*
X262666Y417159D02*
X265574Y417159D01*
X265574Y419812D02*
X262666Y419812D01*
X262666Y422465D02*
X265574Y422465D01*
X265574Y425118D02*
X262666Y425118D01*
X270666Y426714D02*
X270666Y414506D01*
X270666Y426714D02*
X273574Y426714D01*
X273574Y414506D01*
X270666Y414506D01*
X270666Y417159D02*
X273574Y417159D01*
X273574Y419812D02*
X270666Y419812D01*
X270666Y422465D02*
X273574Y422465D01*
X273574Y425118D02*
X270666Y425118D01*
X279316Y432456D02*
X291524Y432456D01*
X279316Y432456D02*
X279316Y435364D01*
X291524Y435364D01*
X291524Y432456D01*
X291524Y435109D02*
X279316Y435109D01*
X279316Y440456D02*
X291524Y440456D01*
X279316Y440456D02*
X279316Y443364D01*
X291524Y443364D01*
X291524Y440456D01*
X291524Y443109D02*
X279316Y443109D01*
X279316Y448456D02*
X291524Y448456D01*
X279316Y448456D02*
X279316Y451364D01*
X291524Y451364D01*
X291524Y448456D01*
X291524Y451109D02*
X279316Y451109D01*
X279316Y456456D02*
X291524Y456456D01*
X279316Y456456D02*
X279316Y459364D01*
X291524Y459364D01*
X291524Y456456D01*
X291524Y459109D02*
X279316Y459109D01*
X279316Y464456D02*
X291524Y464456D01*
X279316Y464456D02*
X279316Y467364D01*
X291524Y467364D01*
X291524Y464456D01*
X291524Y467109D02*
X279316Y467109D01*
X279316Y472456D02*
X291524Y472456D01*
X279316Y472456D02*
X279316Y475364D01*
X291524Y475364D01*
X291524Y472456D01*
X291524Y475109D02*
X279316Y475109D01*
X279316Y480456D02*
X291524Y480456D01*
X279316Y480456D02*
X279316Y483364D01*
X291524Y483364D01*
X291524Y480456D01*
X291524Y483109D02*
X279316Y483109D01*
X279316Y488456D02*
X291524Y488456D01*
X279316Y488456D02*
X279316Y491364D01*
X291524Y491364D01*
X291524Y488456D01*
X291524Y491109D02*
X279316Y491109D01*
X273574Y497106D02*
X273574Y509314D01*
X273574Y497106D02*
X270666Y497106D01*
X270666Y509314D01*
X273574Y509314D01*
X273574Y499759D02*
X270666Y499759D01*
X270666Y502412D02*
X273574Y502412D01*
X273574Y505065D02*
X270666Y505065D01*
X270666Y507718D02*
X273574Y507718D01*
X265574Y509314D02*
X265574Y497106D01*
X262666Y497106D01*
X262666Y509314D01*
X265574Y509314D01*
X265574Y499759D02*
X262666Y499759D01*
X262666Y502412D02*
X265574Y502412D01*
X265574Y505065D02*
X262666Y505065D01*
X262666Y507718D02*
X265574Y507718D01*
X257574Y509314D02*
X257574Y497106D01*
X254666Y497106D01*
X254666Y509314D01*
X257574Y509314D01*
X257574Y499759D02*
X254666Y499759D01*
X254666Y502412D02*
X257574Y502412D01*
X257574Y505065D02*
X254666Y505065D01*
X254666Y507718D02*
X257574Y507718D01*
X249574Y509314D02*
X249574Y497106D01*
X246666Y497106D01*
X246666Y509314D01*
X249574Y509314D01*
X249574Y499759D02*
X246666Y499759D01*
X246666Y502412D02*
X249574Y502412D01*
X249574Y505065D02*
X246666Y505065D01*
X246666Y507718D02*
X249574Y507718D01*
X241574Y509314D02*
X241574Y497106D01*
X238666Y497106D01*
X238666Y509314D01*
X241574Y509314D01*
X241574Y499759D02*
X238666Y499759D01*
X238666Y502412D02*
X241574Y502412D01*
X241574Y505065D02*
X238666Y505065D01*
X238666Y507718D02*
X241574Y507718D01*
X233574Y509314D02*
X233574Y497106D01*
X230666Y497106D01*
X230666Y509314D01*
X233574Y509314D01*
X233574Y499759D02*
X230666Y499759D01*
X230666Y502412D02*
X233574Y502412D01*
X233574Y505065D02*
X230666Y505065D01*
X230666Y507718D02*
X233574Y507718D01*
X225574Y509314D02*
X225574Y497106D01*
X222666Y497106D01*
X222666Y509314D01*
X225574Y509314D01*
X225574Y499759D02*
X222666Y499759D01*
X222666Y502412D02*
X225574Y502412D01*
X225574Y505065D02*
X222666Y505065D01*
X222666Y507718D02*
X225574Y507718D01*
X217574Y509314D02*
X217574Y497106D01*
X214666Y497106D01*
X214666Y509314D01*
X217574Y509314D01*
X217574Y499759D02*
X214666Y499759D01*
X214666Y502412D02*
X217574Y502412D01*
X217574Y505065D02*
X214666Y505065D01*
X214666Y507718D02*
X217574Y507718D01*
X208924Y491364D02*
X196716Y491364D01*
X208924Y491364D02*
X208924Y488456D01*
X196716Y488456D01*
X196716Y491364D01*
X196716Y491109D02*
X208924Y491109D01*
X208924Y483364D02*
X196716Y483364D01*
X208924Y483364D02*
X208924Y480456D01*
X196716Y480456D01*
X196716Y483364D01*
X196716Y483109D02*
X208924Y483109D01*
X208924Y475364D02*
X196716Y475364D01*
X208924Y475364D02*
X208924Y472456D01*
X196716Y472456D01*
X196716Y475364D01*
X196716Y475109D02*
X208924Y475109D01*
X208924Y467364D02*
X196716Y467364D01*
X208924Y467364D02*
X208924Y464456D01*
X196716Y464456D01*
X196716Y467364D01*
X196716Y467109D02*
X208924Y467109D01*
X208924Y459364D02*
X196716Y459364D01*
X208924Y459364D02*
X208924Y456456D01*
X196716Y456456D01*
X196716Y459364D01*
X196716Y459109D02*
X208924Y459109D01*
X208924Y451364D02*
X196716Y451364D01*
X208924Y451364D02*
X208924Y448456D01*
X196716Y448456D01*
X196716Y451364D01*
X196716Y451109D02*
X208924Y451109D01*
X208924Y443364D02*
X196716Y443364D01*
X208924Y443364D02*
X208924Y440456D01*
X196716Y440456D01*
X196716Y443364D01*
X196716Y443109D02*
X208924Y443109D01*
X208924Y435364D02*
X196716Y435364D01*
X208924Y435364D02*
X208924Y432456D01*
X196716Y432456D01*
X196716Y435364D01*
X196716Y435109D02*
X208924Y435109D01*
D11*
X485420Y437780D03*
X388900Y437780D03*
D13*
X327940Y439080D03*
X327940Y411080D03*
D12*
X428300Y497470D03*
X400300Y497470D03*
X237740Y530490D03*
X265740Y530490D03*
X117090Y468260D03*
X145090Y468260D03*
X145090Y432700D03*
X117090Y432700D03*
D11*
X239040Y361580D03*
X335560Y361580D03*
D13*
X338100Y285350D03*
X338100Y313350D03*
X302540Y285350D03*
X302540Y313350D03*
D14*
X380520Y269680D03*
X380520Y221680D03*
D19*
X203000Y144000D03*
X203000Y108000D03*
D20*
X409000Y53000D03*
X373000Y53000D03*
X401000Y155000D03*
X365000Y155000D03*
M02*
