G04 EAGLE Gerber RS-274X export*
G75*
%MOMM*%
%FSLAX34Y34*%
%LPD*%
%INSoldermask Bottom*%
%IPPOS*%
%AMOC8*
5,1,8,0,0,1.08239X$1,22.5*%
G01*
%ADD10C,2.003200*%
%ADD11C,1.753200*%
%ADD12C,3.519200*%
%ADD13C,1.631200*%
%ADD14C,1.803200*%
%ADD15R,0.838200X1.727200*%
%ADD16R,2.003200X1.803200*%
%ADD17C,2.082800*%
%ADD18C,5.703200*%
%ADD19C,0.959600*%


D10*
X526800Y334800D02*
X526800Y352800D01*
X468800Y352800D02*
X468800Y334800D01*
X489800Y391800D02*
X507800Y391800D01*
D11*
X32030Y243400D03*
X32030Y192600D03*
X32030Y167200D03*
X32030Y141800D03*
X82830Y243400D03*
X82830Y192600D03*
X82830Y167200D03*
X82830Y141800D03*
D12*
X40700Y434900D03*
X40700Y303500D03*
D13*
X67800Y359200D03*
X67800Y379200D03*
X67800Y334200D03*
X67800Y404200D03*
X458220Y169940D03*
X458220Y144940D03*
X478220Y144940D03*
X478220Y169940D03*
D14*
X497320Y98440D02*
X513320Y98440D01*
X513320Y216440D02*
X497320Y216440D01*
D15*
X302540Y430440D03*
X327940Y376540D03*
X289840Y430440D03*
X315240Y430440D03*
X327940Y430440D03*
X315240Y376540D03*
X340640Y376540D03*
X353340Y376540D03*
X353340Y430440D03*
X378740Y376540D03*
X340640Y430440D03*
X366040Y430440D03*
X366040Y376540D03*
X378740Y430440D03*
X302540Y376540D03*
X289840Y376540D03*
D16*
X254280Y416220D03*
X254280Y388220D03*
D17*
X300000Y520330D03*
X325400Y520330D03*
X350800Y520330D03*
X376200Y520330D03*
X401600Y520330D03*
X427000Y520330D03*
X499060Y263280D03*
X473660Y263280D03*
D18*
X43780Y42800D03*
X506920Y43070D03*
X507250Y507600D03*
X43180Y506680D03*
D19*
X444780Y242200D03*
X444780Y281570D03*
X127280Y176160D03*
X95530Y421270D03*
X122200Y318400D03*
X211100Y534300D03*
X345720Y136380D03*
X226340Y75830D03*
X110770Y75830D03*
X258090Y85990D03*
X250470Y93610D03*
X89180Y310780D03*
X259360Y52970D03*
X258316Y67000D03*
X186970Y428890D03*
X194590Y384440D03*
X91720Y75830D03*
X341910Y52970D03*
X269520Y315860D03*
X209830Y384440D03*
X297460Y262520D03*
X181890Y441590D03*
X181890Y455560D03*
X449240Y476530D03*
X391440Y473340D03*
X170460Y503820D03*
M02*
